<?xml version="1.0" encoding="utf-8"?>
<!-- Generator: Adobe Illustrator 18.0.0, SVG Export Plug-In . SVG Version: 6.00 Build 0)  -->
<!DOCTYPE svg PUBLIC "-//W3C//DTD SVG 1.1//EN" "http://www.w3.org/Graphics/SVG/1.1/DTD/svg11.dtd">
<svg version="1.1" id="Layer_1" xmlns="http://www.w3.org/2000/svg" xmlns:xlink="http://www.w3.org/1999/xlink" x="0px" y="0px"
	 viewBox="0 0 215 215" enable-background="new 0 0 215 215" xml:space="preserve">
<g>
	<defs>
		<rect id="SVGID_1_" x="0" y="0" width="215" height="215"/>
	</defs>
	<clipPath id="SVGID_2_">
		<use xlink:href="#SVGID_1_"  overflow="visible"/>
	</clipPath>
	<path clip-path="url(#SVGID_2_)" fill-rule="evenodd" clip-rule="evenodd" fill="#FFFFFF" d="M189.9,90.8h-18.7
		c1.4,5.3,2.2,10.8,2.2,16.5c0,36.5-29.6,66.1-66.1,66.1c-36.5,0-66.1-29.6-66.1-66.1c0-5.7,0.8-11.2,2.2-16.5H24.8v90.8
		c0,4.6,3.7,8.3,8.3,8.3h148.6c4.6,0,8.3-3.7,8.3-8.3V90.8z M189.9,33c0-4.6-3.7-8.3-8.3-8.3h-24.8c-4.6,0-8.3,3.7-8.3,8.3v24.8
		c0,4.6,3.7,8.3,8.3,8.3h24.8c4.6,0,8.3-3.7,8.3-8.3V33z M107.3,66.1c-22.8,0-41.3,18.5-41.3,41.3c0,22.8,18.5,41.3,41.3,41.3
		s41.3-18.5,41.3-41.3C148.6,84.5,130.1,66.1,107.3,66.1 M189.9,214.7H24.8C11.1,214.7,0,203.6,0,189.9V24.8C0,11.1,11.1,0,24.8,0
		h165.2c13.7,0,24.8,11.1,24.8,24.8v165.1C214.7,203.6,203.6,214.7,189.9,214.7"/>
</g>
</svg>
