<?xml version="1.0" encoding="utf-8"?>
<!-- Generator: Adobe Illustrator 18.0.0, SVG Export Plug-In . SVG Version: 6.00 Build 0)  -->
<!DOCTYPE svg PUBLIC "-//W3C//DTD SVG 1.1//EN" "http://www.w3.org/Graphics/SVG/1.1/DTD/svg11.dtd">
<svg version="1.1" id="Layer_1" xmlns="http://www.w3.org/2000/svg" xmlns:xlink="http://www.w3.org/1999/xlink" x="0px" y="0px"
	 viewBox="0 0 274 223" enable-background="new 0 0 274 223" xml:space="preserve">
<g>
	<g>
		<defs>
			<rect id="SVGID_1_" x="0" y="0" width="274" height="223"/>
		</defs>
		<clipPath id="SVGID_2_">
			<use xlink:href="#SVGID_1_"  overflow="visible"/>
		</clipPath>
		<g clip-path="url(#SVGID_2_)">
			<defs>
				<rect id="SVGID_3_" x="0.1" y="0.8" width="273.3" height="222.1"/>
			</defs>
			<clipPath id="SVGID_4_">
				<use xlink:href="#SVGID_3_"  overflow="visible"/>
			</clipPath>
			<path clip-path="url(#SVGID_4_)" fill="#FFFFFF" d="M86,223c-31.7,0-61.2-9.3-86-25.2c4.4,0.5,8.9,0.8,13.4,0.8
				c26.3,0,50.5-9,69.7-24c-24.5-0.5-45.3-16.7-52.4-39c3.4,0.7,6.9,1,10.6,1c5.1,0,10.1-0.7,14.8-2c-25.7-5.2-45-27.8-45-55
				c0-0.2,0-0.5,0-0.7c7.6,4.2,16.2,6.7,25.4,7c-15-10.1-25-27.2-25-46.7c0-10.3,2.8-19.9,7.6-28.2C46.7,45,88,67.4,134.6,69.7
				c-1-4.1-1.5-8.4-1.5-12.8c0-31,25.1-56.1,56.1-56.1c16.1,0,30.7,6.8,40.9,17.7C243,16,255,11.4,265.8,4.9
				C261.6,18,252.8,29,241.2,36c11.3-1.4,22.2-4.4,32.2-8.8c-7.5,11.2-17,21.1-28,29c0.1,2.4,0.2,4.8,0.2,7.3
				C245.6,137.5,189.1,223,86,223"/>
		</g>
	</g>
</g>
</svg>
